<?xml version="1.0" encoding="UTF-8"?>
<!-- Do not edit this file with editors other than draw.io -->
<!DOCTYPE svg PUBLIC "-//W3C//DTD SVG 1.1//EN" "http://www.w3.org/Graphics/SVG/1.1/DTD/svg11.dtd">
<svg xmlns="http://www.w3.org/2000/svg" xmlns:xlink="http://www.w3.org/1999/xlink" version="1.1" width="480px" height="191px" viewBox="-0.5 -0.5 480 191" content="&lt;mxfile host=&quot;Electron&quot; modified=&quot;2024-02-27T10:46:01.970Z&quot; agent=&quot;Mozilla/5.0 (Windows NT 10.0; Win64; x64) AppleWebKit/537.36 (KHTML, like Gecko) draw.io/23.1.5 Chrome/120.0.6099.109 Electron/28.1.0 Safari/537.36&quot; version=&quot;23.1.5&quot; etag=&quot;9bzvFX2J5bfSSrdcRRhQ&quot; type=&quot;device&quot; scale=&quot;1&quot; border=&quot;0&quot;&gt;&#10;  &lt;diagram name=&quot;Page-1&quot; id=&quot;-QBA7PzriQvo58rCTdxV&quot;&gt;&#10;    &lt;mxGraphModel dx=&quot;1098&quot; dy=&quot;820&quot; grid=&quot;1&quot; gridSize=&quot;10&quot; guides=&quot;1&quot; tooltips=&quot;1&quot; connect=&quot;1&quot; arrows=&quot;1&quot; fold=&quot;1&quot; page=&quot;1&quot; pageScale=&quot;1&quot; pageWidth=&quot;827&quot; pageHeight=&quot;1169&quot; math=&quot;0&quot; shadow=&quot;0&quot;&gt;&#10;      &lt;root&gt;&#10;        &lt;mxCell id=&quot;0&quot; /&gt;&#10;        &lt;mxCell id=&quot;1&quot; parent=&quot;0&quot; /&gt;&#10;        &lt;mxCell id=&quot;2&quot; style=&quot;edgeStyle=orthogonalEdgeStyle;rounded=0;orthogonalLoop=1;jettySize=auto;html=1;curved=1;fillColor=#008a00;strokeColor=#005700;strokeWidth=3;&quot; edge=&quot;1&quot; source=&quot;3&quot; target=&quot;4&quot; parent=&quot;1&quot;&gt;&#10;          &lt;mxGeometry relative=&quot;1&quot; as=&quot;geometry&quot;&gt;&#10;            &lt;Array as=&quot;points&quot;&gt;&#10;              &lt;mxPoint x=&quot;230&quot; y=&quot;290&quot; /&gt;&#10;              &lt;mxPoint x=&quot;560&quot; y=&quot;290&quot; /&gt;&#10;            &lt;/Array&gt;&#10;          &lt;/mxGeometry&gt;&#10;        &lt;/mxCell&gt;&#10;        &lt;mxCell id=&quot;3&quot; value=&quot;&quot; style=&quot;sketch=0;pointerEvents=1;shadow=0;dashed=0;html=1;strokeColor=none;fillColor=#505050;labelPosition=center;verticalLabelPosition=bottom;verticalAlign=top;outlineConnect=0;align=center;shape=mxgraph.office.devices.workstation_pc;&quot; vertex=&quot;1&quot; parent=&quot;1&quot;&gt;&#10;          &lt;mxGeometry x=&quot;180&quot; y=&quot;360&quot; width=&quot;100&quot; height=&quot;109&quot; as=&quot;geometry&quot; /&gt;&#10;        &lt;/mxCell&gt;&#10;        &lt;mxCell id=&quot;4&quot; value=&quot;&quot; style=&quot;image;aspect=fixed;perimeter=ellipsePerimeter;html=1;align=center;shadow=0;dashed=0;spacingTop=3;image=img/lib/active_directory/windows_server_2.svg;&quot; vertex=&quot;1&quot; parent=&quot;1&quot;&gt;&#10;          &lt;mxGeometry x=&quot;540&quot; y=&quot;330&quot; width=&quot;119.2&quot; height=&quot;149&quot; as=&quot;geometry&quot; /&gt;&#10;        &lt;/mxCell&gt;&#10;      &lt;/root&gt;&#10;    &lt;/mxGraphModel&gt;&#10;  &lt;/diagram&gt;&#10;&lt;/mxfile&gt;&#10;"><defs/><g><path d="M 50 71 Q 50 1 215 1 Q 380 1 380 49.72" fill="none" stroke="#005700" stroke-width="3" stroke-miterlimit="10" pointer-events="stroke"/><path d="M 380 56.47 L 375.5 47.47 L 380 49.72 L 384.5 47.47 Z" fill="#005700" stroke="#005700" stroke-width="3" stroke-miterlimit="10" pointer-events="all"/><rect x="0" y="71" width="100" height="109" fill="none" stroke="none" pointer-events="all"/><path d="M 29.58 159.3 L 94.37 159.3 L 94.37 122.03 L 29.58 122.03 Z M 28.02 164.8 C 26.05 164.8 23.94 163.19 23.94 160.76 L 23.94 120.49 C 23.94 118.52 25.62 116.53 28.08 116.53 L 95.87 116.53 C 98.35 116.53 100 118.57 100 120.47 L 100 160.57 C 100 163.04 98.23 164.8 95.66 164.8 L 70.99 164.8 C 70.5 166.5 70.01 168.3 69.92 169.83 C 69.71 172.94 71.74 173.84 75.34 174.33 C 77.77 174.63 79.91 174.68 82.2 174.74 C 83.59 174.74 84.92 175.75 84.92 177.37 C 84.92 178.93 83.79 180 82.22 180 L 41.8 179.98 C 40.38 179.98 39.15 178.86 39.15 177.37 C 39.15 176.04 40.23 174.76 41.8 174.76 C 44.47 174.66 47.19 174.65 49.99 174.13 C 52.68 173.62 54.33 172.62 54.03 169.66 C 53.92 168.28 53.45 166.5 52.96 164.8 Z M 9.86 93.08 L 40.85 93.08 L 40.85 88.92 L 9.86 88.92 Z M 0 173.08 L 0 81.91 C 0 78.82 2.87 76.52 5.39 76.52 L 45.24 76.52 C 48.02 76.52 50.7 78.95 50.7 81.93 L 50.7 112.37 L 27.87 112.37 C 23.59 112.37 19.72 116.27 19.72 120.41 L 19.72 145.49 L 9.86 145.49 L 9.86 149.65 L 19.72 149.65 L 19.72 157.91 L 9.86 157.91 L 9.86 162.04 L 19.83 162.04 C 20.64 166.4 24.56 168.96 27.85 168.96 L 49.58 168.96 C 49.58 169.29 49.73 169.64 49.71 169.9 C 48.28 170.38 45.07 170.6 42.35 170.62 C 41.15 170.56 40.11 170.69 39.06 171.11 C 38.03 171.52 37.13 172.18 36.36 173.08 Z" fill="#505050" stroke="none" pointer-events="all"/><path d="M 77.46 90.32 L 77.46 73.91 L 98.59 71 L 98.59 90.32 Z M 59.15 90.32 L 59.15 76.52 L 76.06 74.18 L 76.06 90.32 Z M 77.46 107.98 L 77.46 91.7 L 98.59 91.7 L 98.59 107.98 Z M 59.15 105.48 L 59.15 91.7 L 76.06 91.7 L 76.06 107.85 Z" fill="#27ace2" stroke="none" pointer-events="all"/><svg xmlns="http://www.w3.org/2000/svg" xmlns:xlink="http://www.w3.org/1999/xlink" width="119.2" height="149" viewBox="0 0 88.457 108.504" x="359.5" y="40.5"><defs><linearGradient id="A" x1="83.839" y1="200.393" x2="83.47" y2="127.295" xlink:href="#J"><stop offset="0" stop-color="#0677fc"/><stop offset="1" stop-color="#8fcafe"/></linearGradient><linearGradient id="B" x1="111.266" y1="206.304" x2="111.48" y2="118.372" xlink:href="#J"><stop offset="0" stop-color="#05239a"/><stop offset="1" stop-color="#91bcf8"/></linearGradient><linearGradient id="C" x1="103.082" y1="136.89" x2="103.194" y2="107.624" xlink:href="#J"><stop offset="0" stop-color="#a8defe"/><stop offset="1" stop-color="#12a7fc"/></linearGradient><linearGradient id="D" x1="114.761" y1="173.325" x2="136.968" y2="179.987" xlink:href="#J"><stop offset="0" stop-color="#f2580a"/><stop offset=".413" stop-color="#fea15f"/><stop offset="1" stop-color="#a11a00"/></linearGradient><linearGradient id="E" x1="139.104" y1="179.633" x2="159.091" y2="184.168" xlink:href="#J"><stop offset="0" stop-color="#4a610e"/><stop offset=".579" stop-color="#a3d944"/><stop offset="1" stop-color="#6ca01f"/></linearGradient><linearGradient id="F" x1="118.022" y1="175.971" x2="136.543" y2="180.223" xlink:href="#J"><stop offset="0" stop-color="#2c6ffa"/><stop offset=".28" stop-color="#9eb9fd"/><stop offset="1" stop-color="#033ac8"/></linearGradient><linearGradient id="G" x1="138.6" y1="181.888" x2="158.242" y2="186.031" xlink:href="#J"><stop offset="0" stop-color="#8b7312"/><stop offset=".641" stop-color="#fdcc38"/><stop offset="1" stop-color="#e7b623"/></linearGradient><path id="H" d="M114.938 187.287l4.96-17.434c3.615-1.532 6.895-2.22 11.056-2.22 2.783 0 6.59 1.795 8.33 3.346l-5.008 17.754c-3.05-2.063-6.227-3.685-9.133-3.685-4.33 0-6.403.922-10.204 2.24z"/><path id="I" d="M161.04 174.27l-4.96 17.434c-3.615 1.532-6.895 2.22-11.056 2.22-2.783 0-6.59-1.795-8.33-3.346l5.008-17.754c3.05 2.063 6.227 3.685 9.133 3.685 4.33 0 6.403-.922 10.204-2.24z"/><linearGradient id="J" gradientUnits="userSpaceOnUse"/></defs><g transform="translate(-72.583 -105.738)"><path d="M129.52 187.468l-36.963 19.668V137.21l36.963-19.938z" fill="url(#B)"/><path d="M92.557 207.136L74.083 196.93V127.1l18.474 10.11" fill="url(#A)"/><path d="M129.52 117.272L92.557 137.21 74.083 127.1l36.848-19.663z" fill="url(#C)"/><path d="M79.355 150.83v1.322l6.63 3.638v-1.322zm0 6.673v1.322l6.63 3.638v-1.322z" dominant-baseline="auto" fill="#fff"/><path d="M92.557 137.21l36.963-19.938zm0 69.926V137.21L74.083 127.1m18.474 80.036L74.083 196.93V127.1l36.848-19.663 18.59 9.836v70.196z" fill="none" stroke="#fff" stroke-width="3"/><use xlink:href="#H" opacity=".2"/><use xlink:href="#H" x="-5.658" y="19.859" opacity=".2"/><use xlink:href="#I" opacity=".2"/><use xlink:href="#I" x="-5.764" y="20.317" opacity=".2"/><use xlink:href="#H" x="-1.356" y="-1.695" fill="url(#D)"/><use xlink:href="#H" x="-7.015" y="18.163" fill="url(#F)"/><use xlink:href="#I" x="-1.356" y="-1.695" fill="url(#E)"/><use xlink:href="#I" x="-7.12" y="18.62" fill="url(#G)"/></g></svg></g></svg>